{"title":"The Night of S01 1080p AMZN WEBRip HEVC DD5.1 x265","uid":15939981,"size":9137902783,"categoryP":"video","categoryS":"hd___tv_shows","magnet":"?xt=urn:btih:742ae422c4de1be97648712f32767fe565bb9a31&amp;dn=The+Night+of+S01+1080p+AMZN+WEBRip+HEVC+DD5.1+x265&amp;tr=udp%3A%2F%2Ftracker.leechers-paradise.org%3A6969&amp;tr=udp%3A%2F%2Fzer0day.ch%3A1337&amp;tr=udp%3A%2F%2Fopen.demonii.com%3A1337&amp;tr=udp%3A%2F%2Ftracker.coppersurfer.tk%3A6969&amp;tr=udp%3A%2F%2Fexodus.desync.com%3A6969","seeders":2,"leechers":0,"uploader":"nayhtut","files":8,"time":1475444176,"description":"[Screenshots Gallery Link]\r\n\r\n\r\n[https://postimg.org/gallery/kyrwhgec]\r\n\r\n\r\nSource: The Night of S01 1080p AMZN WEBRip DD5.1 x.264-NTB\r\n \r\n\r\nContains:  The Night of Limited Mini Series Episode 01 to 08\r\n\r\nFormat                                   : Matroska\r\nFormat version                           : Version 4 / Version 2\r\nFile size                                : 8.51 GiB\r\nDuration                                 : Various\r\nOverall bit rate                         : 2 377 Kbps\r\nWriting application                      : Lavf57.25.100\r\nWriting library                          : Lavf57.25.100\r\n\r\nVideo\r\n\r\nID                                       : 1\r\nFormat                                   : V_MPEGH/ISO/HEVC\r\nCodec ID                                 : V_MPEGH/ISO/HEVC\r\nDuration                                 : 59mn 56s\r\nBit rate                                 : 1 945 Kbps\r\nWidth                                    : 1 920 pixels\r\nHeight                                   : 1 080 pixels\r\nDisplay aspect ratio                     : 16:9\r\nFrame rate                               : 25.000 fps\r\nBits/(Pixel*Frame)                       : 0.038\r\nStream size                              : 834 MiB (82%)\r\nWriting library                          : Lavc57.48.101 libx265\r\nDefault                                  : Yes\r\nForced                                   : No\r\nDURATION                                 : 00:59:56.131000000\r\n\r\nAudio\r\n\r\nID                                       : 2\r\nFormat                                   : AC-3\r\nFormat/Info                              : Audio Coding 3\r\nMode extension                           : CM (complete main)\r\nFormat settings, Endianness              : Big\r\nCodec ID                                 : A_AC3\r\nDuration                                 : 59mn 56s\r\nBit rate mode                            : Constant\r\nBit rate                                 : 384 Kbps\r\nChannel(s)                               : 6 channels\r\nChannel positions                        : Front: L C R, Side: L R, LFE\r\nSampling rate                            : 48.0 KHz\r\nBit depth                                : 16 bits\r\nCompression mode                         : Lossy\r\nStream size                              : 165 MiB (16%)\r\nWriting library                          : Lavc57.24.102 ac3\r\nLanguage                                 : English\r\nDefault                                  : Yes\r\nForced                                   : No\r\n\r\nText\r\n\r\nID                                       : 3\r\nFormat                                   : ASS\r\nCodec ID                                 : S_TEXT/ASS\r\nCodec ID/Info                            : Advanced Sub Station Alpha","torrent":{"xt":"urn:btih:742ae422c4de1be97648712f32767fe565bb9a31","amp;dn":"The+Night+of+S01+1080p+AMZN+WEBRip+HEVC+DD5.1+x265","amp;tr":["udp%3A%2F%2Ftracker.leechers-paradise.org%3A6969","udp%3A%2F%2Fzer0day.ch%3A1337","udp%3A%2F%2Fopen.demonii.com%3A1337","udp%3A%2F%2Ftracker.coppersurfer.tk%3A6969","udp%3A%2F%2Fexodus.desync.com%3A6969"],"infoHash":"742ae422c4de1be97648712f32767fe565bb9a31","infoHashBuffer":{"type":"Buffer","data":[116,42,228,34,196,222,27,233,118,72,113,47,50,118,127,229,101,187,154,49]},"announce":[],"urlList":[]}}